<?xml version="1.0" standalone="no"?>
<!DOCTYPE svg PUBLIC "-//W3C//DTD SVG 20010904//EN"
 "http://www.w3.org/TR/2001/REC-SVG-20010904/DTD/svg10.dtd">
<svg version="1.0" xmlns="http://www.w3.org/2000/svg"
 width="920.000000pt" height="512.000000pt" viewBox="0 0 920.000000 512.000000"
 preserveAspectRatio="xMidYMid meet">

<g transform="translate(0.000000,512.000000) scale(0.100000,-0.100000)"
fill="#000000" stroke="none">
<path d="M4510 4731 c-8 -5 -46 -16 -85 -26 -81 -19 -361 -110 -420 -135 -53
-23 -182 -70 -220 -80 -45 -13 -282 -111 -463 -192 -24 -10 -91 -36 -150 -58
-59 -21 -159 -63 -222 -93 -63 -29 -132 -59 -152 -66 -40 -13 -102 -75 -120
-119 -31 -77 -86 -253 -93 -292 -4 -25 -15 -76 -25 -115 -19 -75 -25 -113 -40
-271 -5 -55 -14 -121 -20 -145 -31 -136 -53 -275 -56 -359 -2 -89 -18 -260
-43 -460 -6 -47 -10 -128 -10 -180 1 -84 4 -102 30 -157 17 -35 34 -63 39 -63
5 0 16 -13 24 -28 28 -54 102 -132 186 -196 47 -36 96 -74 110 -85 l25 -20
-21 -15 c-18 -13 -21 -21 -14 -48 17 -72 54 -111 190 -199 55 -35 138 -96 163
-120 22 -20 149 -89 165 -89 5 0 43 -22 83 -49 41 -26 135 -86 209 -131 74
-46 142 -89 150 -95 8 -7 35 -20 60 -29 25 -10 73 -35 106 -57 67 -43 102 -56
183 -68 60 -9 108 0 276 49 213 63 601 148 1020 225 83 15 179 34 215 42 36 8
90 18 120 23 99 16 324 71 375 92 133 54 218 112 250 174 32 60 130 208 149
223 9 7 16 19 16 26 0 7 17 32 38 56 20 24 42 52 47 60 6 9 33 47 62 85 129
171 218 295 236 331 8 15 18 55 22 89 7 67 3 80 -67 184 -84 125 -331 327
-538 440 -63 35 -120 67 -126 71 -11 9 0 118 31 290 28 157 17 309 -30 415
-20 45 -80 126 -156 210 -10 12 -19 27 -19 32 0 16 -119 118 -198 171 -38 25
-88 62 -111 81 -23 19 -57 47 -75 63 -19 15 -37 27 -40 27 -4 0 -43 28 -87 63
-44 34 -88 67 -97 72 -10 6 -33 21 -52 35 -40 29 -45 32 -200 112 -63 33 -141
78 -173 99 -31 22 -76 47 -99 56 -23 9 -71 34 -107 55 -147 84 -217 110 -251
89z m112 -75 c29 -24 78 -73 108 -109 30 -36 57 -64 59 -61 5 4 -4 16 -68 95
-19 23 -26 36 -15 29 10 -7 37 -34 59 -61 22 -26 44 -48 49 -48 5 -1 1 9 -10
22 -51 57 -49 59 29 23 42 -19 97 -48 121 -66 25 -17 92 -52 149 -78 57 -26
115 -55 128 -64 13 -10 -10 -2 -51 17 -74 35 -110 43 -110 26 0 -5 -9 -13 -20
-16 -12 -4 -20 -15 -20 -28 0 -19 -8 -14 -50 30 -27 29 -67 64 -90 78 -37 24
-45 25 -71 15 -16 -7 -29 -16 -29 -21 0 -24 -24 1 -114 117 -54 69 -101 123
-103 120 -7 -6 24 -49 117 -165 41 -51 94 -119 116 -150 23 -31 62 -71 87 -90
25 -18 78 -71 118 -117 40 -46 80 -84 89 -84 8 0 27 8 40 17 14 9 26 17 27 18
6 3 -31 92 -47 113 -27 34 -26 38 18 40 41 3 81 -24 83 -56 3 -35 -3 -97 -11
-113 -11 -20 -3 -29 49 -58 97 -52 264 -78 306 -48 16 13 17 17 6 31 -23 27
-103 76 -144 87 -28 7 -37 14 -33 25 3 9 6 20 6 25 0 19 21 6 121 -78 148
-124 307 -243 327 -244 9 -1 22 -1 29 0 17 2 25 -16 9 -22 -22 -9 -130 18
-241 58 -76 27 -136 40 -251 55 -158 20 -304 50 -364 75 -19 9 -71 19 -115 24
-44 4 -88 11 -97 16 -14 5 -18 2 -18 -14 0 -14 12 -27 38 -40 30 -16 49 -41
101 -133 35 -62 81 -135 101 -163 21 -27 56 -82 79 -122 23 -40 47 -75 53 -79
17 -11 -78 162 -122 221 -44 60 -154 254 -148 260 8 9 32 -27 132 -195 109
-182 147 -242 152 -237 9 8 -97 199 -209 378 -23 36 -18 61 7 33 18 -19 36
-49 187 -296 46 -76 87 -138 90 -138 10 0 -105 212 -166 306 -74 114 -79 124
-61 124 8 0 23 -17 34 -37 95 -182 191 -347 197 -341 5 5 -124 267 -162 327
-22 37 -24 44 -9 38 10 -4 24 -7 31 -7 12 0 69 -107 140 -263 14 -33 29 -56
32 -53 6 6 -46 133 -94 230 -34 67 -37 82 -17 68 13 -9 133 -225 170 -307 15
-33 30 -53 32 -46 3 8 -32 86 -77 174 -45 87 -80 161 -79 163 2 2 14 1 25 -2
16 -5 38 -39 81 -128 61 -125 142 -261 142 -238 0 7 -12 31 -27 55 -14 23 -54
98 -87 167 -33 69 -62 128 -64 133 -2 4 2 7 10 7 8 0 28 -28 46 -62 116 -226
162 -308 175 -308 4 0 5 5 2 10 -3 6 -2 10 3 10 20 0 172 -175 172 -198 0 -39
-78 38 -104 103 -6 14 -10 16 -13 7 -3 -8 4 -27 16 -43 11 -15 21 -31 21 -34
0 -10 -61 36 -101 76 -20 20 -65 50 -100 67 -52 26 -72 30 -106 25 -40 -5 -44
-8 -54 -46 -7 -27 -7 -52 -1 -76 22 -78 54 -169 79 -221 25 -51 43 -82 116
-197 14 -23 35 -44 47 -48 11 -4 20 -15 20 -26 0 -11 20 -63 44 -117 24 -53
51 -121 61 -149 15 -49 54 -111 55 -88 0 14 -63 189 -93 256 -27 59 -34 104
-22 132 16 38 34 14 71 -95 48 -148 86 -224 104 -213 4 2 -5 30 -20 62 -26 54
-94 255 -120 351 -6 24 -17 42 -25 42 -13 0 -74 97 -91 145 -4 11 24 -12 63
-52 57 -60 71 -81 81 -123 12 -52 99 -256 120 -281 7 -8 21 -25 31 -39 24 -31
38 -21 17 12 -18 28 -126 288 -126 304 0 6 -7 17 -15 24 -30 25 -14 28 36 8
53 -22 73 -51 93 -133 12 -47 47 -125 57 -125 12 0 13 -4 -16 80 -14 40 -23
75 -21 77 2 3 17 -19 33 -48 38 -70 41 -40 4 42 -34 76 -47 131 -34 154 8 13
12 8 22 -26 20 -66 88 -209 100 -209 14 0 16 -7 -20 80 -33 79 -69 195 -69
219 0 28 18 -4 60 -107 39 -94 60 -130 60 -102 0 12 -50 147 -87 235 -14 33
-27 74 -30 90 -2 17 -18 53 -35 80 -17 28 -41 70 -54 95 -39 78 -75 112 -124
119 -50 7 -60 20 -116 151 -39 93 -32 108 10 20 29 -62 92 -150 107 -150 4 0
-9 28 -29 63 -58 96 -75 137 -57 137 7 0 13 -8 12 -18 -1 -18 96 -186 114
-197 16 -11 10 9 -17 48 -28 42 -77 147 -71 153 2 3 26 -35 54 -83 71 -125
113 -190 113 -176 0 6 -27 60 -60 120 -33 59 -60 111 -60 115 0 5 6 8 14 8 16
0 46 -45 106 -155 50 -93 80 -138 87 -132 2 3 -7 23 -20 44 -43 68 -118 223
-108 223 17 0 64 -66 114 -162 27 -51 62 -117 78 -145 16 -29 29 -58 28 -65 0
-10 -2 -10 -6 0 -10 24 -21 11 -14 -15 16 -56 94 -233 102 -233 8 0 -19 79
-42 121 -5 11 -7 19 -4 19 2 0 24 -37 47 -82 53 -106 61 -80 10 32 -22 47 -45
103 -52 125 -7 22 -20 49 -30 60 -10 11 -51 88 -91 170 -40 83 -75 154 -77
159 -3 5 2 6 9 4 7 -2 48 -74 91 -159 43 -85 81 -159 86 -165 5 -5 17 -35 27
-65 26 -79 87 -206 92 -193 2 7 -7 40 -21 75 -29 69 -29 92 -1 29 19 -42 55
-82 55 -61 0 6 -6 22 -14 34 -8 12 -28 60 -44 107 -17 47 -65 154 -106 237
-42 84 -76 155 -76 158 0 3 4 5 9 5 6 0 30 -42 54 -94 42 -89 97 -180 97 -162
0 5 -13 32 -29 60 -35 64 -75 165 -68 172 3 3 16 -14 28 -38 34 -67 101 -170
106 -164 3 3 -9 27 -26 54 -43 67 -39 74 8 16 25 -29 40 -57 39 -73 -1 -42 9
-128 16 -140 4 -6 12 -11 17 -11 6 0 8 4 5 9 -4 5 -1 11 4 13 7 2 5 19 -5 47
-17 50 -12 69 7 25 8 -19 13 -78 13 -168 l0 -138 -73 -97 c-41 -53 -99 -147
-131 -211 -113 -228 -174 -336 -228 -409 -39 -51 -52 -76 -44 -84 7 -7 15 -6
26 3 13 11 15 5 15 -56 0 -78 24 -262 36 -272 4 -4 4 29 -1 73 -19 218 -22
280 -10 293 10 11 13 -3 14 -65 2 -98 19 -277 31 -323 7 -26 8 -11 5 55 -3 50
-7 158 -9 240 -2 83 -1 114 1 70 6 -127 23 -116 24 16 l1 114 14 -94 c13 -83
13 -96 -1 -117 -19 -29 -19 -52 0 -98 12 -29 13 -45 5 -75 -10 -38 -5 -90 12
-123 5 -10 11 -75 14 -145 5 -138 11 -181 26 -200 6 -8 7 -28 3 -50 l-8 -38
-13 60 c-8 33 -16 74 -19 90 -5 26 -23 209 -25 243 0 6 -5 12 -11 12 -9 0 -10
-28 -5 -102 6 -90 39 -346 51 -403 3 -11 -2 -33 -9 -50 -12 -25 -15 -27 -15
-9 -1 12 -8 41 -16 65 -9 24 -20 71 -25 104 -6 33 -17 92 -25 130 -9 39 -18
82 -21 96 -2 15 -16 66 -30 115 -31 107 -43 192 -43 299 -1 68 -4 83 -21 98
-38 32 -65 10 -32 -26 24 -26 42 -137 22 -137 -7 0 -10 -7 -6 -15 7 -19 -18
-20 -33 -1 -10 12 -16 12 -42 -1 -28 -14 -29 -16 -14 -33 8 -9 13 -23 10 -31
-3 -8 -1 -90 5 -184 11 -187 20 -509 13 -485 -23 91 -39 350 -37 619 l1 74
-24 -28 c-14 -15 -22 -36 -20 -46 3 -12 0 -16 -9 -12 -8 3 -17 -3 -21 -13 -6
-19 -22 -34 -35 -34 -3 0 -2 12 2 28 36 116 36 125 -9 166 -32 29 -37 11 -7
-29 25 -33 26 -36 11 -64 -8 -17 -15 -39 -15 -50 0 -11 -4 -23 -10 -26 -5 -3
-10 -14 -10 -24 0 -22 -61 -104 -133 -179 -131 -137 -250 -266 -351 -382 -61
-69 -166 -179 -235 -245 -69 -66 -193 -186 -276 -266 -226 -220 -275 -237
-440 -153 -49 26 -92 50 -95 54 -3 4 -43 32 -90 62 -47 31 -95 66 -108 77 -13
12 -40 32 -60 45 -20 13 -55 38 -77 55 -22 17 -53 41 -70 54 -16 12 -50 39
-75 59 -97 79 -108 88 -115 88 -5 0 -31 21 -59 47 -67 63 -135 122 -175 153
-59 46 -115 94 -171 145 -30 29 -75 64 -100 80 -25 16 -56 38 -70 50 -100 88
-139 129 -189 195 l-56 74 2 266 c3 287 5 330 22 373 6 16 11 54 11 86 0 32 7
77 14 100 14 38 22 83 31 172 2 19 9 58 16 85 6 27 15 96 20 154 9 109 12 135
22 160 8 20 35 148 52 241 15 88 32 155 45 184 5 11 14 38 21 60 6 22 20 52
30 67 11 14 19 31 19 37 0 20 70 63 167 103 54 22 125 53 157 69 33 16 68 29
78 29 10 0 46 12 81 26 34 14 95 37 136 50 69 23 76 24 107 9 17 -8 38 -15 46
-15 20 0 138 60 174 88 16 13 45 33 64 46 19 13 34 27 33 33 -1 5 15 17 35 26
95 41 277 108 319 118 43 10 120 35 178 59 11 5 41 13 66 19 25 6 65 19 90 30
63 29 81 26 141 -23z m818 -457 c54 -48 43 -43 -72 34 -49 32 -88 62 -88 67 0
14 110 -55 160 -101z m256 -201 c4 -7 -9 1 -29 16 -20 16 -37 30 -37 33 0 7
58 -36 66 -49z m-306 -160 c0 -5 15 -32 33 -61 18 -29 45 -77 61 -107 15 -30
39 -65 52 -77 22 -20 22 -23 8 -37 -8 -9 -17 -16 -19 -16 -4 0 -165 317 -165
326 0 4 7 1 15 -6 8 -7 15 -17 15 -22z m94 -38 c15 -30 46 -86 67 -124 30 -53
36 -71 27 -78 -23 -14 -29 -9 -62 65 -19 40 -50 98 -70 129 -20 32 -36 60 -36
63 0 4 10 5 23 3 15 -2 31 -20 51 -58z m412 -117 c26 -49 64 -115 84 -148 20
-33 40 -79 43 -102 4 -23 9 -50 12 -60 3 -10 -4 2 -15 26 -11 24 -27 49 -35
55 -7 6 -28 46 -45 89 -16 43 -42 101 -56 128 -28 57 -45 99 -40 99 3 0 26
-39 52 -87z m220 -680 c-11 -11 -19 6 -11 24 8 17 8 17 12 0 3 -10 2 -21 -1
-24z m-45 -206 c-11 -78 -23 -171 -26 -207 -7 -74 -26 -180 -32 -180 -2 0 -10
6 -16 13 -16 16 -23 366 -8 387 8 11 11 -2 11 -51 0 -82 11 -189 19 -189 3 0
6 69 7 153 0 88 5 163 11 177 9 20 11 3 8 -80 -5 -113 -1 -100 26 85 8 52 15
78 17 62 2 -16 -6 -92 -17 -170z m-107 -223 c6 -139 5 -164 -8 -177 -9 -9 -16
-20 -16 -25 0 -13 -25 -22 -61 -22 l-29 0 -1 83 c-2 112 1 160 12 172 5 5 9
-29 9 -87 0 -53 3 -103 6 -112 13 -35 19 -12 17 67 -3 91 10 82 22 -16 13
-103 21 -59 17 91 -3 104 -1 156 8 171 6 13 13 21 14 19 2 -1 6 -76 10 -164z
m36 -184 c0 -5 -5 -10 -11 -10 -5 0 -7 5 -4 10 3 6 8 10 11 10 2 0 4 -4 4 -10z
m-11 -157 c-4 -27 -17 -104 -28 -173 -11 -69 -22 -143 -24 -165 -3 -32 -4 -28
-5 18 -1 31 -6 57 -12 57 -5 0 -10 -4 -10 -9 0 -5 -9 -11 -20 -14 -15 -4 -20
0 -20 16 0 17 7 22 26 23 14 1 28 4 31 7 2 3 16 63 30 134 26 135 30 153 36
153 2 0 0 -21 -4 -47z m-392 -115 c4 -7 9 -56 10 -108 1 -52 12 -189 24 -305
11 -115 24 -246 27 -290 6 -67 10 -80 26 -83 21 -4 21 2 -4 241 -7 60 -9 111
-7 114 6 5 7 -6 32 -203 8 -66 17 -128 21 -137 4 -12 -2 -20 -23 -28 -15 -7
-66 -29 -111 -50 -90 -42 -93 -43 -91 -31 5 27 -3 72 -12 72 -6 0 -9 -17 -8
-41 3 -35 0 -43 -18 -50 -20 -7 -21 -4 -25 47 -3 48 -1 54 17 54 11 0 30 3 43
6 19 5 22 2 22 -21 0 -17 4 -25 13 -22 6 2 10 11 8 18 -2 8 -3 29 -2 47 0 18
-8 49 -19 69 -11 21 -16 41 -11 47 4 6 5 22 1 36 -4 18 -8 21 -14 11 -6 -9
-21 17 -49 83 -32 79 -44 97 -65 103 -14 3 -33 1 -42 -5 -10 -6 -21 -8 -24 -5
-10 10 -7 141 4 148 6 4 10 -9 10 -32 0 -53 10 -83 27 -83 11 0 14 17 12 88
-1 70 2 95 16 115 9 15 18 27 19 27 0 0 0 -37 -2 -82 -4 -100 5 -171 21 -165
9 3 11 40 8 135 -2 92 0 132 8 132 10 0 17 -75 14 -170 -1 -39 14 -189 23
-232 3 -16 10 -28 16 -28 7 0 8 30 3 93 -11 140 -12 254 -5 321 7 60 7 60 10
16 2 -25 3 -50 3 -56 -1 -36 28 -369 36 -419 6 -33 14 -85 18 -115 7 -43 12
-54 25 -52 8 1 18 -4 22 -13 3 -8 11 -15 17 -15 8 0 9 13 4 43 -4 23 -11 130
-15 237 -5 107 -14 249 -20 315 -5 66 -12 146 -14 178 -4 55 4 71 21 45z m46
-142 c-8 -95 -13 -96 -13 -3 0 41 -3 84 -6 94 -5 17 -5 17 10 -1 11 -14 13
-34 9 -90z m61 -207 c18 -73 20 -103 7 -95 -5 3 -14 36 -20 73 -7 38 -14 77
-16 87 -10 48 15 -6 29 -65z m231 64 c-3 -10 -11 -38 -17 -63 -18 -76 -27 -91
-27 -45 -1 22 -4 58 -6 80 -5 37 -5 38 7 15 l12 -25 4 28 c2 16 10 27 19 27
10 0 13 -5 8 -17z m-272 -88 l6 -40 -14 40 c-7 22 -13 51 -13 65 l0 25 7 -25
c4 -14 11 -43 14 -65z m-370 -22 c4 -64 2 -72 -32 -133 l-36 -65 -5 95 c-3 56
-1 101 5 109 7 10 11 -5 13 -53 2 -47 7 -66 15 -63 8 2 13 34 15 90 1 48 7 87
11 87 5 0 11 -30 14 -67z m-92 -133 c2 -47 -1 -91 -5 -98 -6 -10 -26 -12 -81
-7 l-72 7 2 -41 c1 -22 7 -47 14 -55 7 -9 8 -15 2 -18 -11 -3 -17 -280 -7
-297 7 -11 -21 -29 -63 -41 l-26 -7 2 200 c2 146 6 204 15 214 11 10 13 -24
15 -173 3 -183 6 -210 23 -199 13 8 13 395 -1 395 -5 0 -1 14 11 30 23 33 40
39 40 14 0 -8 5 -12 10 -9 6 3 10 25 11 48 1 46 4 42 14 -15 10 -62 25 -43 25
31 0 39 5 73 10 76 6 4 10 -18 10 -59 0 -68 6 -96 21 -96 5 0 9 46 9 102 0
124 17 122 21 -2z m189 -155 c0 -7 -45 -6 -52 1 -3 3 -1 18 5 34 l11 29 18
-30 c10 -16 18 -32 18 -34z m390 6 c0 -5 8 -17 17 -26 16 -16 15 -18 -8 -36
-33 -25 -39 -24 -39 11 0 17 5 30 11 30 6 0 9 7 5 15 -3 8 -1 15 4 15 6 0 10
-4 10 -9z m-848 -278 l3 -142 -95 -40 c-52 -22 -121 -51 -153 -65 l-57 -26 5
23 c3 12 7 59 8 105 3 75 6 85 32 112 16 17 32 30 37 30 4 0 8 -44 8 -97 0
-133 20 -110 25 27 3 86 7 106 24 126 12 13 25 24 31 24 6 0 10 -42 10 -108 0
-75 4 -114 13 -127 8 -10 17 -14 20 -9 3 5 7 77 8 159 3 136 10 175 31 175 2
0 1 -33 -3 -72 -12 -113 -10 -236 2 -244 23 -14 29 26 28 181 0 88 3 169 8
180 10 24 11 0 15 -212z m172 153 c-8 -63 -14 -72 -14 -20 0 21 -3 49 -6 62
-5 18 -3 21 10 16 13 -5 15 -15 10 -58z m204 -66 c-4 -98 23 -99 30 0 2 33 7
60 11 60 4 0 5 -16 3 -35 -2 -19 -1 -47 2 -61 11 -44 36 -11 37 50 l1 51 8
-55 c6 -39 5 -57 -3 -62 -7 -4 -50 -20 -97 -34 -47 -14 -113 -39 -147 -54 -35
-16 -65 -25 -67 -21 -3 3 -2 34 1 67 l5 60 34 -4 c20 -3 44 2 58 12 24 15 24
15 31 -24 11 -67 25 -56 25 21 0 80 8 86 18 13 10 -72 32 -69 32 4 0 52 5 72
17 72 2 0 2 -27 1 -60z m-693 -272 c0 -82 -6 -107 -25 -108 -3 0 -3 35 1 78 9
85 -1 110 -24 66 -8 -16 -19 -28 -24 -26 -4 1 -9 -28 -11 -64 -2 -44 1 -64 8
-59 5 3 10 18 10 32 0 31 5 28 13 -8 6 -24 2 -29 -41 -47 -53 -23 -223 -74
-228 -69 -2 2 12 19 31 37 33 32 35 33 35 11 0 -13 4 -19 10 -16 6 4 8 15 5
24 -3 10 1 24 9 30 12 10 13 9 9 -8 -3 -12 -1 -21 5 -21 11 0 25 32 20 47 -2
5 12 24 29 42 l33 32 -6 -43 c-4 -39 7 -80 20 -67 3 3 7 34 10 69 4 61 7 66
53 111 26 27 50 48 53 49 3 0 5 -42 5 -92z"/>
<path d="M4526 4652 c-3 -5 -10 -37 -16 -73 -6 -35 -15 -82 -20 -104 -5 -22
-10 -72 -10 -111 0 -57 -4 -77 -21 -98 -27 -34 -17 -46 20 -25 27 16 29 16 44
-11 9 -14 14 -36 11 -47 -11 -40 21 -89 72 -114 27 -13 59 -35 70 -48 18 -21
24 -23 37 -13 17 15 19 53 2 65 -7 5 -5 10 4 16 9 6 10 11 3 15 -6 4 -35 41
-65 84 -29 42 -70 101 -91 130 -21 28 -33 52 -28 52 6 0 49 -51 95 -113 75
-101 127 -160 116 -132 -8 20 -84 127 -147 207 -35 44 -62 86 -60 94 2 7 36
-31 77 -85 71 -96 176 -210 185 -200 2 2 -34 49 -80 104 -133 159 -200 265
-166 265 14 0 129 -124 197 -215 81 -107 90 -117 81 -90 -13 36 -115 169 -196
255 -67 72 -94 110 -76 110 4 0 133 -132 188 -193 21 -22 40 -39 42 -36 5 5
-180 221 -219 256 -14 12 -25 29 -25 37 0 18 -16 30 -24 18z m98 -448 c37 -52
66 -97 63 -100 -2 -3 -27 26 -54 63 -78 106 -95 133 -86 132 4 0 39 -43 77
-95z m-20 -24 c42 -55 72 -100 67 -100 -15 0 -151 174 -151 192 0 16 10 5 84
-92z m-4 -74 c-13 -13 -30 9 -30 39 1 19 2 18 21 -4 14 -17 17 -27 9 -35z"/>
<path d="M4118 4535 c-42 -7 -87 -20 -100 -28 -12 -8 -47 -22 -76 -32 -66 -21
-162 -85 -197 -131 l-27 -36 19 -26 c17 -22 27 -27 59 -25 22 2 73 5 114 7
116 7 178 22 260 64 81 42 106 74 112 141 3 31 -1 37 -37 58 -22 12 -42 22
-45 22 -3 -1 -39 -7 -82 -14z m2 -115 c0 -14 -47 -43 -58 -36 -6 3 -26 -1 -46
-9 -47 -20 -53 -19 -51 7 1 15 12 26 36 34 41 15 119 18 119 4z"/>
<path d="M4475 4221 c-6 -5 -36 -18 -68 -30 -50 -18 -80 -21 -220 -21 -89 0
-180 -4 -202 -9 -22 -5 -87 -12 -144 -16 -58 -3 -108 -8 -111 -10 -3 -2 -84
-6 -180 -10 -234 -8 -375 -25 -496 -60 -44 -13 -96 -20 -168 -24 -12 -1 -16
-6 -12 -16 3 -8 0 -15 -7 -15 -7 0 -18 -9 -25 -20 -10 -17 -10 -21 2 -26 22
-8 59 15 52 33 -4 11 -2 13 9 9 9 -3 73 8 143 24 150 34 240 47 382 55 292 16
570 38 628 49 19 4 23 2 17 -12 -3 -9 -7 -21 -8 -27 -1 -6 42 -10 111 -11 109
-2 144 7 81 20 -17 3 -53 6 -80 6 -26 0 -51 5 -54 10 -4 6 37 10 116 10 105 0
120 -2 105 -13 -17 -13 -16 -15 18 -31 20 -10 50 -36 67 -59 25 -34 30 -50 27
-86 -2 -28 1 -46 9 -48 15 -5 90 63 81 73 -5 4 -16 0 -26 -9 -27 -24 -32 -21
-32 18 0 60 -45 124 -99 140 -24 7 -22 9 25 32 72 37 118 83 81 83 -7 0 -17
-4 -22 -9z"/>
<path d="M4807 3968 c78 -103 110 -153 169 -261 84 -156 144 -249 164 -255 12
-4 12 -1 -2 14 -9 11 -58 96 -109 189 -50 94 -104 186 -119 205 -15 19 -39 54
-54 78 -14 23 -33 42 -42 42 -12 0 -14 -4 -7 -12z"/>
<path d="M4755 3950 c-4 -6 5 -25 19 -43 37 -46 88 -124 118 -182 33 -62 118
-242 118 -248 0 -3 22 -53 50 -111 27 -58 77 -188 110 -289 34 -100 84 -240
111 -312 28 -71 64 -166 81 -209 44 -114 50 -147 31 -168 -8 -9 -18 -37 -20
-61 l-5 -44 -125 -1 c-68 0 -127 -3 -131 -7 -4 -4 1 -13 11 -20 13 -9 59 -13
156 -14 148 -1 150 0 171 53 9 24 8 28 -9 33 -18 5 -18 6 -3 36 10 18 18 33
18 35 1 2 28 -6 60 -17 32 -12 60 -19 62 -16 11 10 -41 65 -62 65 -42 0 -57
22 -76 115 -19 96 -26 117 -70 210 -41 89 -60 132 -60 141 0 4 -11 30 -25 58
-14 29 -27 63 -30 76 -2 13 -13 46 -24 74 -10 28 -32 84 -47 124 -15 40 -31
75 -36 78 -9 6 -88 171 -88 185 0 6 -8 27 -19 47 -119 238 -171 325 -230 390
-31 34 -45 39 -56 22z"/>
<path d="M2784 3926 c-8 -22 3 -33 18 -18 9 9 9 15 0 24 -9 9 -13 7 -18 -6z"/>
<path d="M2750 3867 c0 -25 65 -187 114 -285 26 -51 53 -116 60 -145 20 -72
37 -117 86 -222 24 -49 46 -103 51 -120 20 -75 30 -108 69 -220 23 -66 60
-157 82 -203 33 -67 40 -89 35 -121 -7 -52 18 -66 31 -18 10 36 2 65 -48 172
-42 91 -44 96 -74 190 -51 160 -86 260 -96 277 -5 10 -10 23 -10 29 0 6 -16
43 -35 83 -19 39 -42 100 -50 135 -9 34 -36 102 -60 149 -42 86 -88 191 -117
267 -16 40 -38 59 -38 32z"/>
<path d="M3292 3844 c-57 -28 -160 -133 -187 -191 -21 -44 -21 -142 0 -183 19
-38 62 -70 92 -70 18 0 28 -9 40 -37 8 -21 22 -46 31 -57 26 -28 87 -56 125
-56 66 0 197 55 237 99 3 4 16 12 30 19 33 17 110 131 110 162 -1 14 2 48 5
75 11 94 -42 139 -157 133 -62 -3 -68 -2 -68 16 0 28 -44 81 -83 100 -51 24
-114 20 -175 -10z m68 -195 c0 -10 -14 -35 -32 -55 -29 -32 -33 -34 -44 -19
-17 23 -9 53 22 87 21 21 31 25 41 17 7 -6 13 -20 13 -30z m188 -91 c24 -24
13 -56 -34 -96 -49 -42 -84 -46 -84 -10 0 17 84 118 99 118 4 0 12 -5 19 -12z"/>
<path d="M4335 3773 c-9 -10 -36 -45 -61 -78 -25 -33 -59 -78 -75 -100 -17
-22 -51 -56 -76 -75 -28 -21 -57 -57 -75 -90 -16 -30 -49 -75 -72 -100 -24
-25 -51 -59 -60 -77 -9 -18 -27 -43 -41 -57 -14 -14 -25 -30 -25 -36 0 -19
-90 -138 -120 -160 -15 -11 -44 -44 -63 -72 -19 -29 -44 -62 -56 -72 -12 -11
-21 -24 -21 -30 0 -7 -18 -32 -40 -56 -22 -24 -40 -49 -40 -55 0 -5 -10 -21
-21 -35 -85 -105 -90 -166 -13 -157 56 7 134 65 134 100 0 6 11 25 25 43 14
18 25 37 25 42 0 6 18 30 40 53 22 24 44 58 49 75 9 33 17 44 119 158 35 39
74 91 87 116 12 25 36 61 52 81 16 20 40 58 54 83 13 25 31 49 40 51 18 6 144
153 164 192 8 14 18 29 23 32 6 3 26 40 46 81 20 41 44 87 53 101 9 14 13 33
10 42 -8 22 -43 22 -62 0z m35 -20 c0 -3 -11 -21 -25 -39 -14 -18 -25 -37 -25
-43 0 -5 -8 -16 -19 -23 -10 -7 -19 -17 -19 -23 0 -5 -5 -11 -11 -13 -16 -5
-13 25 2 31 8 3 26 30 40 61 15 32 33 56 42 56 8 0 15 -3 15 -7z m-105 -163
c4 -6 1 -17 -5 -25 -7 -8 -10 -21 -7 -28 3 -8 -6 -26 -20 -41 -20 -21 -28 -25
-39 -15 -8 6 -15 8 -15 3 -1 -5 -2 -13 -3 -19 0 -5 -14 -24 -31 -40 -16 -17
-57 -63 -90 -104 -33 -40 -77 -93 -97 -117 -21 -25 -38 -51 -38 -59 0 -7 -16
-32 -35 -55 -19 -23 -35 -45 -35 -50 0 -4 -11 -15 -25 -24 -29 -19 -33 -8 -7
22 9 11 25 30 35 41 9 12 17 27 17 34 0 8 11 24 24 36 14 13 39 52 56 87 21
41 47 74 75 96 23 18 54 56 69 84 15 28 40 61 56 73 17 12 30 26 30 32 0 11
59 75 72 78 4 0 10 -4 13 -9z m-504 -643 c-30 -44 -74 -88 -56 -57 12 22 76
100 81 100 3 0 -8 -19 -25 -43z m-61 -92 c0 -13 -31 -65 -39 -65 -4 0 -21 -24
-36 -52 -16 -29 -32 -55 -36 -58 -5 -3 -15 -22 -23 -42 -15 -35 -50 -67 -90
-81 -14 -6 -17 -4 -12 9 10 26 99 147 136 184 19 19 46 52 60 73 22 33 40 47
40 32z"/>
<path d="M5800 3517 c0 -16 62 -164 121 -287 42 -88 69 -135 69 -120 0 14 -14
54 -32 90 -17 36 -54 121 -83 189 -28 69 -57 127 -63 129 -7 2 -12 2 -12 -1z"/>
<path d="M5540 3475 c0 -14 31 -65 40 -65 5 0 0 16 -11 35 -20 33 -29 42 -29
30z"/>
<path d="M6060 3442 c0 -37 48 -132 66 -132 18 0 18 2 -5 42 -11 18 -24 52
-31 76 -12 48 -30 56 -30 14z"/>
<path d="M5874 3429 c8 -39 94 -224 101 -217 6 6 -94 248 -102 248 -3 0 -3
-14 1 -31z"/>
<path d="M5215 3410 c23 -106 118 -370 130 -358 3 3 -8 43 -24 89 -16 46 -42
127 -56 179 -15 52 -34 102 -42 110 -13 13 -14 11 -8 -20z"/>
<path d="M5150 3411 c0 -6 14 -45 31 -88 17 -43 49 -127 70 -187 36 -104 59
-149 59 -115 0 19 -103 316 -124 356 -17 33 -36 51 -36 34z"/>
<path d="M4155 3211 c-3 -2 -24 -4 -47 -3 -37 2 -46 -3 -85 -44 -74 -77 -80
-126 -19 -163 41 -26 65 -26 140 -1 73 25 76 25 76 1 0 -29 -46 -78 -93 -100
-100 -46 -230 -154 -256 -213 -24 -53 -28 -130 -8 -147 13 -10 109 -23 277
-37 41 -4 100 -13 130 -20 81 -21 146 -18 170 6 24 24 25 33 5 50 -8 7 -15 20
-15 30 0 23 -31 50 -58 50 -11 0 -23 4 -27 9 -3 5 -31 15 -63 21 -90 18 -102
22 -102 29 0 7 36 28 112 68 32 17 98 88 98 106 0 7 10 33 21 57 28 57 22 134
-16 214 -21 45 -35 61 -64 74 -33 14 -165 25 -176 13z"/>
<path d="M2638 3143 c-20 -21 -35 -58 -54 -132 -25 -93 -20 -140 18 -192 12
-16 18 -37 16 -55 -5 -31 -3 -33 -31 39 -25 68 -68 67 -86 0 -23 -83 45 -233
106 -233 27 0 83 26 83 38 0 5 9 18 20 30 23 24 102 188 120 248 7 23 11 74 8
115 -4 84 -31 134 -77 143 -90 17 -107 17 -123 -1z m82 -179 c0 -6 -6 -27 -14
-45 l-14 -34 -11 27 c-7 18 -7 38 1 64 9 36 11 37 24 19 8 -10 14 -24 14 -31z"/>
<path d="M4757 3092 c-96 -47 -220 -179 -237 -255 -22 -98 -24 -220 -5 -279
40 -129 178 -203 310 -167 48 13 122 72 138 108 6 14 33 72 60 129 l50 104 -6
103 c-3 63 -12 115 -21 133 -50 97 -206 163 -289 124z m106 -191 c42 -16 63
-126 34 -178 -34 -62 -129 -101 -171 -70 -41 30 -38 154 5 193 10 9 19 23 19
30 0 29 64 43 113 25z"/>
<path d="M5394 3014 c21 -89 193 -503 209 -504 13 0 7 26 -17 74 -13 27 -27
59 -30 72 -4 14 -17 48 -30 77 -20 45 -41 98 -101 267 -16 44 -41 55 -31 14z"/>
<path d="M5726 3032 c-10 -17 106 -262 124 -262 14 0 13 5 -16 63 -15 29 -37
81 -50 116 -25 68 -47 100 -58 83z"/>
<path d="M5350 3001 c0 -12 11 -50 24 -84 14 -34 54 -141 90 -237 83 -224 119
-303 124 -273 2 12 -36 122 -83 245 -48 122 -96 250 -106 283 -23 69 -49 105
-49 66z"/>
<path d="M5317 2972 c-3 -4 3 -28 13 -52 47 -113 114 -280 134 -332 11 -32 25
-58 29 -58 4 0 3 9 -3 19 -5 11 -10 27 -10 36 0 9 -24 77 -54 153 -29 75 -61
158 -70 184 -18 48 -31 65 -39 50z"/>
<path d="M5467 2943 c-5 -8 29 -101 76 -206 13 -29 39 -90 57 -137 19 -46 46
-98 62 -115 32 -35 37 -19 9 34 -29 52 -159 354 -167 385 -7 28 -29 52 -37 39z"/>
<path d="M5590 2921 c0 -36 98 -291 113 -291 13 0 8 26 -17 81 -13 30 -35 91
-50 136 -27 82 -46 112 -46 74z"/>
<path d="M2832 2736 c-11 -12 -29 -39 -40 -61 -11 -22 -34 -67 -51 -99 -17
-32 -31 -66 -31 -74 0 -9 -11 -43 -25 -77 -13 -34 -22 -74 -20 -91 2 -16 4
-32 4 -36 1 -12 44 -9 62 5 26 20 69 90 69 112 0 12 15 46 33 76 86 143 109
209 85 242 -20 27 -63 28 -86 3z"/>
<path d="M3330 2490 c-10 -6 -11 -14 -4 -28 7 -16 14 -18 32 -11 12 4 22 12
22 16 0 15 -36 31 -50 23z"/>
<path d="M3410 2485 c-10 -12 -9 -20 4 -40 9 -14 14 -29 12 -34 -7 -11 46 -22
59 -12 17 14 85 20 110 11 13 -5 72 -14 132 -20 59 -6 119 -13 133 -15 65 -10
192 -35 227 -44 52 -14 252 -29 332 -24 76 4 238 22 264 29 9 3 15 10 11 15
-3 6 -69 7 -167 3 -181 -7 -282 1 -557 47 -96 16 -199 29 -228 29 -34 0 -59 5
-69 15 -8 8 -19 12 -24 9 -14 -8 -140 -7 -164 2 -11 4 -29 15 -41 26 -19 17
-22 17 -34 3z"/>
<path d="M3169 2384 c-8 -8 -43 -32 -79 -53 -62 -37 -85 -61 -58 -61 7 0 47
20 88 45 41 25 80 45 86 45 6 0 19 -20 30 -45 18 -45 28 -54 39 -35 7 12 -14
79 -29 96 -19 20 -61 25 -77 8z"/>
<path d="M3340 2355 c-32 -33 -33 -36 -18 -52 16 -15 18 -14 29 11 8 17 23 29
41 33 23 5 26 8 17 24 -14 27 -31 24 -69 -16z"/>
<path d="M5684 2345 c-10 -24 12 -294 25 -325 9 -20 10 -10 6 50 -3 41 -7 122
-10 179 -5 108 -10 127 -21 96z"/>
<path d="M5520 2323 c0 -22 42 -84 55 -79 13 4 7 45 -11 74 -17 26 -44 29 -44
5z"/>
<path d="M4775 2320 c-41 -6 -36 -13 20 -25 53 -12 165 -20 165 -13 0 5 -9 8
-20 8 -11 0 -44 8 -73 18 -34 11 -66 15 -92 12z"/>
<path d="M3321 2229 c-16 -47 -13 -88 10 -139 28 -61 64 -164 79 -225 6 -27
25 -69 42 -95 37 -54 106 -218 119 -279 5 -23 25 -82 44 -129 19 -48 35 -91
35 -96 0 -6 29 -69 64 -141 58 -119 89 -165 101 -154 7 8 -35 122 -64 174 -31
55 -49 102 -147 385 -41 118 -77 203 -99 236 -19 28 -48 91 -64 140 -16 50
-39 110 -51 135 -30 58 -39 101 -31 141 7 32 -5 78 -20 78 -4 0 -12 -14 -18
-31z"/>
<path d="M5510 2216 c0 -31 12 -39 35 -22 23 16 13 46 -15 46 -15 0 -20 -7
-20 -24z"/>
<path d="M2800 2160 c0 -5 4 -10 9 -10 6 0 13 5 16 10 3 6 -1 10 -9 10 -9 0
-16 -4 -16 -10z"/>
<path d="M5487 2142 c-18 -20 -22 -42 -8 -42 8 0 41 43 41 55 0 11 -18 4 -33
-13z"/>
<path d="M2710 2138 c-19 -6 -39 -13 -45 -18 -5 -4 -54 -27 -108 -50 -66 -29
-95 -46 -88 -53 7 -7 19 -4 38 9 15 10 36 17 46 15 19 -3 101 32 127 54 8 7
30 16 48 20 30 6 41 19 25 28 -5 2 -24 0 -43 -5z"/>
<path d="M5764 1909 c8 -131 36 -291 52 -296 7 -2 5 31 -7 99 -10 57 -21 147
-25 201 -4 54 -11 100 -17 104 -7 4 -8 -31 -3 -108z"/>
<path d="M4066 1950 c-46 -21 -56 -36 -65 -98 l-6 -47 -64 0 c-58 0 -65 -3
-92 -33 -49 -55 -36 -124 26 -141 26 -7 30 -12 29 -42 -9 -203 -3 -246 31
-259 13 -5 26 -14 30 -19 19 -32 135 12 245 95 128 95 230 185 246 217 9 17
22 37 29 44 17 17 8 51 -19 69 -12 7 -69 25 -127 39 -180 44 -181 44 -174 63
17 41 17 98 0 115 -20 21 -39 20 -89 -3z m113 -319 c23 -6 22 -9 -43 -74 -71
-71 -89 -81 -82 -44 6 32 27 111 33 120 5 8 58 8 92 -2z"/>
<path d="M3199 1925 c-53 -29 -45 -98 15 -133 30 -18 41 -19 61 -10 30 14 35
26 28 78 -5 33 -12 46 -37 61 -36 22 -34 22 -67 4z"/>
<path d="M4643 1818 c-40 -44 -104 -204 -129 -323 -39 -187 -30 -234 45 -220
48 9 74 35 90 92 8 26 17 53 21 58 4 6 11 26 15 45 4 19 13 55 20 80 30 100
46 187 40 215 -11 47 -33 75 -58 75 -13 0 -33 -10 -44 -22z"/>
<path d="M2915 1748 c26 -127 141 -264 266 -316 41 -17 102 -35 136 -42 53 -9
66 -8 87 5 28 19 36 42 36 111 0 71 -22 117 -85 180 -49 50 -57 54 -100 54
-25 0 -59 -7 -74 -15 -29 -14 -75 -63 -83 -87 -8 -22 -38 18 -38 50 0 20 -10
40 -32 61 -26 25 -40 31 -76 31 l-44 0 7 -32z m382 -194 c5 -15 -13 -44 -28
-44 -4 0 -19 10 -33 23 -20 18 -23 26 -15 45 8 22 10 22 39 7 17 -9 34 -23 37
-31z"/>
<path d="M4766 1121 c-6 -72 0 -131 15 -131 5 0 9 45 9 100 0 55 -4 100 -9
100 -4 0 -11 -31 -15 -69z"/>
<path d="M4666 1094 c-9 -24 -7 -152 3 -158 9 -6 21 72 21 137 0 38 -13 50
-24 21z"/>
<path d="M5171 1196 c-14 -16 -7 -66 8 -66 13 0 23 49 13 66 -8 14 -10 14 -21
0z"/>
<path d="M5114 1186 c-8 -20 -1 -66 10 -69 12 -3 27 50 19 69 -7 18 -22 18
-29 0z"/>
<path d="M4437 893 c-4 -3 -7 -22 -7 -42 0 -41 15 -32 25 17 6 29 -2 41 -18
25z"/>
</g>
</svg>
